
<svg width="375" height="375" viewBox="0 0 375 375" fill="none" xmlns="http://www.w3.org/2000/svg">
<circle cx="187.5" cy="187.5" r="187.5" fill="url(#paint0_linear_1_6)"/>
<path d="M80 94.8182H142.909L186.182 200.273H188.364L231.636 94.8182H294.545V281H245.091V173.364H243.636L202.182 279.545H172.364L130.909 172.636H129.455V281H80V94.8182Z" fill="url(#paint1_linear_1_6)"/>
<path d="M146.318 79H136.091L147.614 44.0909H160.568L172.091 79H161.864L154.227 53.7045H153.955L146.318 79ZM144.409 65.2273H163.636V72.3182H144.409V65.2273ZM196.112 44.0909H205.589V66.4545C205.589 69.1136 204.953 71.4148 203.68 73.358C202.419 75.2898 200.658 76.7841 198.396 77.8409C196.135 78.8864 193.51 79.4091 190.521 79.4091C187.51 79.4091 184.874 78.8864 182.612 77.8409C180.351 76.7841 178.589 75.2898 177.328 73.358C176.078 71.4148 175.453 69.1136 175.453 66.4545V44.0909H184.93V65.6364C184.93 66.7159 185.169 67.6818 185.646 68.5341C186.124 69.375 186.783 70.0341 187.624 70.5114C188.476 70.9886 189.442 71.2273 190.521 71.2273C191.612 71.2273 192.578 70.9886 193.419 70.5114C194.26 70.0341 194.919 69.375 195.396 68.5341C195.874 67.6818 196.112 66.7159 196.112 65.6364V44.0909ZM210.094 79V44.0909H225.162C227.753 44.0909 230.02 44.5625 231.963 45.5057C233.906 46.4489 235.418 47.8068 236.497 49.5795C237.577 51.3523 238.116 53.4773 238.116 55.9545C238.116 58.4545 237.56 60.5625 236.446 62.2784C235.344 63.9943 233.793 65.2898 231.793 66.1648C229.804 67.0398 227.48 67.4773 224.821 67.4773H215.821V60.1136H222.912C224.026 60.1136 224.974 59.9773 225.759 59.7045C226.554 59.4205 227.162 58.9716 227.582 58.358C228.014 57.7443 228.23 56.9432 228.23 55.9545C228.23 54.9545 228.014 54.142 227.582 53.517C227.162 52.8807 226.554 52.4148 225.759 52.1193C224.974 51.8125 224.026 51.6591 222.912 51.6591H219.571V79H210.094ZM230.548 62.9773L239.276 79H228.98L220.457 62.9773H230.548Z" fill="url(#paint2_linear_1_6)"/>
<defs>
<linearGradient id="paint0_linear_1_6" x1="187.5" y1="0" x2="187.5" y2="375" gradientUnits="userSpaceOnUse">
<stop/>
<stop offset="1" stop-color="#252525"/>
</linearGradient>
<linearGradient id="paint1_linear_1_6" x1="187.5" y1="33" x2="187.5" y2="343" gradientUnits="userSpaceOnUse">
<stop stop-color="white"/>
<stop offset="1" stop-color="#999999"/>
</linearGradient>
<linearGradient id="paint2_linear_1_6" x1="187.5" y1="33" x2="187.5" y2="91" gradientUnits="userSpaceOnUse">
<stop stop-color="#00AAFF"/>
<stop offset="1" stop-color="#006699"/>
</linearGradient>
</defs>
</svg>
